<svg width="21" height="20" viewBox="0 0 21 20" fill="none" xmlns="http://www.w3.org/2000/svg">
<path d="M9.78635 14.9023H4.39258" stroke="#1F222A" stroke-width="1.5" stroke-linecap="round" stroke-linejoin="round"/>
<path fill-rule="evenodd" clip-rule="evenodd" d="M13.1709 14.903C13.1709 16.6045 13.7383 17.1712 15.4391 17.1712C17.1398 17.1712 17.7072 16.6045 17.7072 14.903C17.7072 13.2016 17.1398 12.6349 15.4391 12.6349C13.7383 12.6349 13.1709 13.2016 13.1709 14.903Z" stroke="#1F222A" stroke-width="1.5" stroke-linecap="round" stroke-linejoin="round"/>
<path d="M12.3145 6.16181H17.7075" stroke="#1F222A" stroke-width="1.5" stroke-linecap="round" stroke-linejoin="round"/>
<path fill-rule="evenodd" clip-rule="evenodd" d="M8.92964 6.16067C8.92964 4.45993 8.36223 3.89252 6.66148 3.89252C4.95999 3.89252 4.39258 4.45993 4.39258 6.16067C4.39258 7.86217 4.95999 8.42883 6.66148 8.42883C8.36223 8.42883 8.92964 7.86217 8.92964 6.16067Z" stroke="#1F222A" stroke-width="1.5" stroke-linecap="round" stroke-linejoin="round"/>
</svg>
