<svg width="20" height="20" viewBox="0 0 20 20" fill="none" xmlns="http://www.w3.org/2000/svg">
<path d="M5.371 6.25L7.273 8.152L6.2125 9.2125L2.5 5.5L6.2125 1.7875L7.273 2.848L5.371 4.75H10.75C12.3413 4.75 13.8674 5.38214 14.9926 6.50736C16.1179 7.63258 16.75 9.1587 16.75 10.75C16.75 12.3413 16.1179 13.8674 14.9926 14.9926C13.8674 16.1179 12.3413 16.75 10.75 16.75H4V15.25H10.75C11.9435 15.25 13.0881 14.7759 13.932 13.932C14.7759 13.0881 15.25 11.9435 15.25 10.75C15.25 9.55652 14.7759 8.41193 13.932 7.56802C13.0881 6.7241 11.9435 6.25 10.75 6.25H5.371Z" fill="#4E525A"/>
</svg>
