<svg width="24" height="24" viewBox="0 0 24 24" fill="none" xmlns="http://www.w3.org/2000/svg">
<path d="M3.9 3.9H20.1C20.3387 3.9 20.5676 3.99482 20.7364 4.16361C20.9052 4.33239 21 4.56131 21 4.8V19.2C21 19.4387 20.9052 19.6676 20.7364 19.8364C20.5676 20.0052 20.3387 20.1 20.1 20.1H3.9C3.66131 20.1 3.43239 20.0052 3.2636 19.8364C3.09482 19.6676 3 19.4387 3 19.2V4.8C3 4.56131 3.09482 4.33239 3.2636 4.16361C3.43239 3.99482 3.66131 3.9 3.9 3.9ZM19.2 11.1H4.8V18.3H19.2V11.1ZM19.2 9.3V5.7H4.8V9.3H19.2ZM13.8 14.7H17.4V16.5H13.8V14.7Z" fill="#4E525A"/>
</svg>
