<svg width="24" height="25" viewBox="0 0 24 25" fill="none" xmlns="http://www.w3.org/2000/svg">
<g clip-path="url(#clip0_8398_6186)">
<path d="M23.7663 12.7765C23.7663 11.9608 23.7001 11.1406 23.559 10.3381H12.2402V14.9591H18.722C18.453 16.4495 17.5888 17.7679 16.3233 18.6056V21.604H20.1903C22.4611 19.514 23.7663 16.4274 23.7663 12.7765Z" fill="#4285F4"/>
<path d="M12.24 24.5008C15.4764 24.5008 18.2058 23.4382 20.1944 21.6039L16.3274 18.6055C15.2516 19.3375 13.8626 19.752 12.2444 19.752C9.11376 19.752 6.45934 17.6399 5.50693 14.8003H1.51648V17.8912C3.55359 21.9434 7.70278 24.5008 12.24 24.5008Z" fill="#34A853"/>
<path d="M5.50277 14.8002C5.00011 13.3099 5.00011 11.696 5.50277 10.2057V7.11475H1.51674C-0.185266 10.5055 -0.185266 14.5004 1.51674 17.8912L5.50277 14.8002Z" fill="#FBBC04"/>
<path d="M12.24 5.24966C13.9508 5.2232 15.6043 5.86697 16.8433 7.04867L20.2694 3.62262C18.1 1.5855 15.2207 0.465534 12.24 0.500809C7.70277 0.500809 3.55359 3.05822 1.51648 7.11481L5.50252 10.2058C6.45052 7.36173 9.10935 5.24966 12.24 5.24966Z" fill="#EA4335"/>
</g>
<defs>
<clipPath id="clip0_8398_6186">
<rect width="24" height="24" fill="white" transform="translate(0 0.5)"/>
</clipPath>
</defs>
</svg>
