<svg width="61" height="26" viewBox="0 0 61 26" fill="none" xmlns="http://www.w3.org/2000/svg">
<path d="M33.4444 4.19781C33.2767 4.37546 33.0764 4.51885 32.8547 4.62033C33.0427 4.70641 33.2158 4.82285 33.3669 4.96536C33.5446 5.1331 33.6881 5.33344 33.7896 5.55521C33.8757 5.36717 33.9922 5.19409 34.1347 5.04306L34.7313 5.60604L34.1347 5.04306C34.3024 4.86532 34.5027 4.72186 34.7244 4.62033C34.5363 4.53421 34.3632 4.4177 34.2121 4.2751C34.0345 4.10741 33.8911 3.90717 33.7896 3.68551C33.7035 3.87361 33.587 4.04675 33.4444 4.19781Z" fill="#35383F" stroke="#D0EA59" stroke-width="1.6655"/>
<path d="M49.817 1.34139H42.8125C42.4144 1.34139 42.0326 1.48879 41.7511 1.75116C41.4697 2.01352 41.3115 2.36937 41.3115 2.74041V23.2594C41.3115 23.4431 41.3503 23.6251 41.4258 23.7948C41.5012 23.9645 41.6118 24.1188 41.7511 24.2487C41.8905 24.3786 42.056 24.4816 42.2381 24.5519C42.4202 24.6222 42.6154 24.6584 42.8125 24.6584H49.817C50.0141 24.6584 50.2093 24.6222 50.3914 24.5519C50.5735 24.4816 50.739 24.3786 50.8784 24.2487C51.0178 24.1188 51.1283 23.9645 51.2037 23.7948C51.2792 23.6251 51.318 23.4431 51.318 23.2594V2.74041C51.318 2.36937 51.1599 2.01352 50.8784 1.75116C50.5969 1.48879 50.2151 1.34139 49.817 1.34139Z" fill="#D0EA59" stroke="#35383F" stroke-width="1.6655" stroke-linecap="round" stroke-linejoin="round"/>
<path d="M17.8441 1.34139H10.8396C10.4415 1.34139 10.0597 1.48879 9.77825 1.75116C9.49676 2.01352 9.33862 2.36937 9.33862 2.74041V23.2594C9.33862 23.4431 9.37745 23.6251 9.45288 23.7948C9.52831 23.9645 9.63887 24.1188 9.77825 24.2487C9.91763 24.3786 10.0831 24.4816 10.2652 24.5519C10.4473 24.6222 10.6425 24.6584 10.8396 24.6584H17.8441C18.0412 24.6584 18.2364 24.6222 18.4185 24.5519C18.6006 24.4816 18.7661 24.3786 18.9055 24.2487C19.0449 24.1188 19.1554 23.9645 19.2308 23.7948C19.3063 23.6251 19.3451 23.4431 19.3451 23.2594V2.74041C19.3451 2.36937 19.187 2.01352 18.9055 1.75116C18.624 1.48879 18.2422 1.34139 17.8441 1.34139Z" fill="#D0EA59" stroke="#35383F" stroke-width="1.6655" stroke-linecap="round" stroke-linejoin="round"/>
<path d="M1 19.6617V6.33772C1 5.896 1.17571 5.47237 1.48847 5.16003C1.80123 4.84769 2.22543 4.67222 2.66775 4.67222H7.67099C8.1133 4.67222 8.5375 4.84769 8.85026 5.16003C9.16302 5.47237 9.33873 5.896 9.33873 6.33772V19.6617C9.33873 20.1035 9.16302 20.5271 8.85026 20.8394C8.5375 21.1518 8.1133 21.3272 7.67099 21.3272H2.66775C2.22543 21.3272 1.80123 21.1518 1.48847 20.8394C1.17571 20.5271 1 20.1035 1 19.6617Z" fill="#D0EA59" stroke="#35383F" stroke-width="1.6655" stroke-linecap="round" stroke-linejoin="round"/>
<path d="M59.6566 19.6617V6.33772C59.6566 5.896 59.4809 5.47237 59.1681 5.16003C58.8554 4.84769 58.4312 4.67222 57.9889 4.67222H52.9856C52.5433 4.67222 52.1191 4.84769 51.8063 5.16003C51.4936 5.47237 51.3179 5.896 51.3179 6.33772V19.6617C51.3179 20.1035 51.4936 20.5271 51.8063 20.8394C52.1191 21.1518 52.5433 21.3272 52.9856 21.3272H57.9889C58.4312 21.3272 58.8554 21.1518 59.1681 20.8394C59.4809 20.5271 59.6566 20.1035 59.6566 19.6617Z" fill="#D0EA59" stroke="#35383F" stroke-width="1.6655" stroke-linecap="round" stroke-linejoin="round"/>
<path d="M15.8745 13H44.7821" stroke="#D0EA59" stroke-width="1.6655" stroke-linecap="round" stroke-linejoin="round"/>
<path d="M28.8683 6.97515C29.2719 5.57909 30.9042 5.53681 31.3827 6.84831L31.4233 6.97595L31.968 8.85864C32.0928 9.29041 32.2946 9.68551 32.5596 10.0173C32.8246 10.3491 33.1468 10.6099 33.5043 10.782L33.6508 10.8466L35.2439 11.4896C36.4252 11.9667 36.4609 13.8956 35.3519 14.4612L35.2439 14.5091L33.6508 15.1529C33.2854 15.3003 32.9509 15.5387 32.67 15.8519C32.3892 16.1651 32.1684 16.5459 32.0227 16.9686L31.968 17.1409L31.4239 19.0244C31.0203 20.4204 29.3881 20.4627 28.9101 19.152L28.8683 19.0244L28.3242 17.1417C28.1995 16.7098 27.9978 16.3145 27.7327 15.9826C27.4677 15.6506 27.1455 15.3897 26.7879 15.2175L26.6421 15.1529L25.049 14.5099C23.867 14.0328 23.8313 12.1039 24.941 11.5391L25.049 11.4896L26.6421 10.8466C27.0074 10.6991 27.3417 10.4607 27.6225 10.1475C27.9032 9.83424 28.1239 9.45351 28.2695 9.03095L28.3242 8.85864L28.8683 6.97515Z" fill="#D0EA59" stroke="#35383F" stroke-width="1.09299"/>
</svg>
