<svg width="88" height="88" viewBox="0 0 88 88" fill="none" xmlns="http://www.w3.org/2000/svg">
<rect x="0.5" y="0.5" width="87" height="87" rx="43.5" fill="url(#paint0_linear_6557_42951)"/>
<rect x="0.5" y="0.5" width="87" height="87" rx="43.5" stroke="url(#paint1_linear_6557_42951)"/>
<g filter="url(#filter0_d_6557_42951)">
<rect x="16" y="16" width="56" height="56" rx="28" fill="white"/>
<rect x="16.5" y="16.5" width="55" height="55" rx="27.5" stroke="#E0E0E1"/>
<path d="M44 54.5C38.2009 54.5 33.5 49.7991 33.5 44C33.5 38.2009 38.2009 33.5 44 33.5C49.7991 33.5 54.5 38.2009 54.5 44C54.5 49.7991 49.7991 54.5 44 54.5ZM42.95 44.8316V48.2H45.05V44.8316C45.6027 44.5904 46.0555 44.1662 46.3323 43.6304C46.609 43.0946 46.6928 42.4798 46.5696 41.8894C46.4464 41.2991 46.1237 40.7692 45.6557 40.3888C45.1877 40.0084 44.6031 39.8007 44 39.8007C43.3969 39.8007 42.8123 40.0084 42.3443 40.3888C41.8763 40.7692 41.5536 41.2991 41.4304 41.8894C41.3072 42.4798 41.391 43.0946 41.6677 43.6304C41.9445 44.1662 42.3973 44.5904 42.95 44.8316Z" fill="#666A73"/>
</g>
<defs>
<filter id="filter0_d_6557_42951" x="12" y="14" width="64" height="64" filterUnits="userSpaceOnUse" color-interpolation-filters="sRGB">
<feFlood flood-opacity="0" result="BackgroundImageFix"/>
<feColorMatrix in="SourceAlpha" type="matrix" values="0 0 0 0 0 0 0 0 0 0 0 0 0 0 0 0 0 0 127 0" result="hardAlpha"/>
<feOffset dy="2"/>
<feGaussianBlur stdDeviation="2"/>
<feColorMatrix type="matrix" values="0 0 0 0 0.105882 0 0 0 0 0.109804 0 0 0 0 0.113725 0 0 0 0.04 0"/>
<feBlend mode="normal" in2="BackgroundImageFix" result="effect1_dropShadow_6557_42951"/>
<feBlend mode="normal" in="SourceGraphic" in2="effect1_dropShadow_6557_42951" result="shape"/>
</filter>
<linearGradient id="paint0_linear_6557_42951" x1="44" y1="0" x2="44" y2="88" gradientUnits="userSpaceOnUse">
<stop stop-color="#E4E5E7" stop-opacity="0.48"/>
<stop offset="1" stop-color="#F7F8F8" stop-opacity="0"/>
<stop offset="1" stop-color="#E4E5E7" stop-opacity="0"/>
</linearGradient>
<linearGradient id="paint1_linear_6557_42951" x1="44" y1="0" x2="44" y2="88" gradientUnits="userSpaceOnUse">
<stop stop-color="#E4E5E7"/>
<stop offset="0.765625" stop-color="#E4E5E7" stop-opacity="0"/>
</linearGradient>
</defs>
</svg>
